<svg width="14" height="14" viewBox="0 0 14 14" fill="none" xmlns="http://www.w3.org/2000/svg">
<path d="M12.2255 8.93962C12.3445 8.65612 12.0044 8.41462 11.7192 8.54062C11.1489 8.79064 10.5329 8.91936 9.91025 8.91862C7.469 8.91862 5.49033 6.97962 5.49033 4.58737C5.49008 3.77974 5.71951 2.9887 6.15183 2.30653C6.3175 2.0452 6.11858 1.68353 5.81525 1.76053C3.47667 2.35728 1.75 4.44095 1.75 6.91953C1.75 9.86362 4.18542 12.25 7.19017 12.25C9.46517 12.25 11.4135 10.8821 12.2255 8.93962Z" fill="#F8F8F8"/>
<path d="M9.1063 1.81008C8.79713 1.60358 8.42847 1.97225 8.63438 2.28142L9.00188 2.83267C9.15111 3.05612 9.23076 3.3188 9.23076 3.5875C9.23076 3.8562 9.15111 4.11888 9.00188 4.34233L8.63438 4.89358C8.42847 5.20275 8.79772 5.57142 9.10688 5.36492L9.65755 4.99742C9.88101 4.84819 10.1437 4.76854 10.4124 4.76854C10.6811 4.76854 10.9438 4.84819 11.1672 4.99742L11.7185 5.36492C12.0276 5.57142 12.3963 5.20275 12.1898 4.89358L11.8223 4.34233C11.6731 4.11888 11.5934 3.8562 11.5934 3.5875C11.5934 3.3188 11.6731 3.05612 11.8223 2.83267L12.1898 2.28142C12.3963 1.97225 12.0276 1.60358 11.7179 1.81008L11.1672 2.17759C10.9438 2.32681 10.6811 2.40646 10.4124 2.40646C10.1437 2.40646 9.88101 2.32681 9.65755 2.17759L9.1063 1.81008Z" fill="#F8F8F8"/>
</svg>
