<svg width="20" height="20" viewBox="0 0 20 20" fill="none" xmlns="http://www.w3.org/2000/svg">
<circle cx="10" cy="10" r="10" fill="white"/>
<path d="M10 3C10.1295 3 10.2537 3.05145 10.3453 3.14304C10.4369 3.23463 10.4884 3.35885 10.4884 3.48837V4.13953C10.4884 4.26906 10.4369 4.39328 10.3453 4.48487C10.2537 4.57645 10.1295 4.62791 10 4.62791C9.87048 4.62791 9.74626 4.57645 9.65467 4.48487C9.56308 4.39328 9.51163 4.26906 9.51163 4.13953V3.48837C9.51163 3.35885 9.56308 3.23463 9.65467 3.14304C9.74626 3.05145 9.87048 3 10 3ZM10 6.25581C9.00698 6.25581 8.05463 6.65029 7.35246 7.35246C6.65029 8.05463 6.25581 9.00698 6.25581 10C6.25581 10.993 6.65029 11.9454 7.35246 12.6475C8.05463 13.3497 9.00698 13.7442 10 13.7442C10.993 13.7442 11.9454 13.3497 12.6475 12.6475C13.3497 11.9454 13.7442 10.993 13.7442 10C13.7442 9.00698 13.3497 8.05463 12.6475 7.35246C11.9454 6.65029 10.993 6.25581 10 6.25581ZM5.7414 5.05051C5.64933 4.96151 5.52599 4.91222 5.39794 4.91327C5.26989 4.91433 5.14737 4.96563 5.05678 5.05614C4.96619 5.14664 4.91477 5.26911 4.9136 5.39716C4.91243 5.52521 4.96159 5.64859 5.05051 5.74074L5.51088 6.20112C5.55559 6.2491 5.60951 6.28758 5.66942 6.31428C5.72932 6.34097 5.79399 6.35532 5.85957 6.35648C5.92514 6.35764 5.99028 6.34557 6.05109 6.32101C6.1119 6.29645 6.16714 6.25989 6.21351 6.21351C6.25989 6.16714 6.29645 6.1119 6.32101 6.05109C6.34557 5.99028 6.35764 5.92514 6.35648 5.85957C6.35532 5.79399 6.34097 5.72932 6.31428 5.66942C6.28758 5.60951 6.2491 5.55559 6.20112 5.51088L5.7414 5.05051ZM17 10C17 10.1295 16.9485 10.2537 16.857 10.3453C16.7654 10.4369 16.6412 10.4884 16.5116 10.4884H15.8605C15.7309 10.4884 15.6067 10.4369 15.5151 10.3453C15.4235 10.2537 15.3721 10.1295 15.3721 10C15.3721 9.87048 15.4235 9.74626 15.5151 9.65467C15.6067 9.56308 15.7309 9.51163 15.8605 9.51163H16.5116C16.6412 9.51163 16.7654 9.56308 16.857 9.65467C16.9485 9.74626 17 9.87048 17 10ZM14.9495 5.7414C14.9962 5.69637 15.0334 5.64249 15.059 5.58292C15.0846 5.52335 15.0981 5.45927 15.0987 5.39443C15.0993 5.32958 15.087 5.26527 15.0625 5.20524C15.0379 5.14521 15.0017 5.09067 14.9559 5.04479C14.91 4.99891 14.8555 4.96262 14.7955 4.93804C14.7355 4.91346 14.6712 4.90107 14.6064 4.9016C14.5415 4.90213 14.4774 4.91558 14.4178 4.94114C14.3582 4.96671 14.3043 5.00389 14.2593 5.05051L13.7989 5.51088C13.7509 5.55559 13.7124 5.60951 13.6857 5.66942C13.659 5.72932 13.6447 5.79399 13.6435 5.85957C13.6424 5.92514 13.6544 5.99028 13.679 6.05109C13.7036 6.1119 13.7401 6.16714 13.7865 6.21351C13.8329 6.25989 13.8881 6.29645 13.9489 6.32101C14.0097 6.34557 14.0749 6.35764 14.1404 6.35648C14.206 6.35532 14.2707 6.34097 14.3306 6.31428C14.3905 6.28758 14.4444 6.2491 14.4891 6.20112L14.9495 5.7414ZM10 15.3721C10.1295 15.3721 10.2537 15.4235 10.3453 15.5151C10.4369 15.6067 10.4884 15.7309 10.4884 15.8605V16.5116C10.4884 16.6412 10.4369 16.7654 10.3453 16.857C10.2537 16.9485 10.1295 17 10 17C9.87048 17 9.74626 16.9485 9.65467 16.857C9.56308 16.7654 9.51163 16.6412 9.51163 16.5116V15.8605C9.51163 15.7309 9.56308 15.6067 9.65467 15.5151C9.74626 15.4235 9.87048 15.3721 10 15.3721ZM14.4891 13.7989C14.4444 13.7509 14.3905 13.7124 14.3306 13.6857C14.2707 13.659 14.206 13.6447 14.1404 13.6435C14.0749 13.6424 14.0097 13.6544 13.9489 13.679C13.8881 13.7036 13.8329 13.7401 13.7865 13.7865C13.7401 13.8329 13.7036 13.8881 13.679 13.9489C13.6544 14.0097 13.6424 14.0749 13.6435 14.1404C13.6447 14.206 13.659 14.2707 13.6857 14.3306C13.7124 14.3905 13.7509 14.4444 13.7989 14.4891L14.2593 14.9495C14.304 14.9975 14.3579 15.036 14.4178 15.0626C14.4777 15.0893 14.5424 15.1037 14.6079 15.1049C14.6735 15.106 14.7386 15.0939 14.7995 15.0694C14.8603 15.0448 14.9155 15.0083 14.9619 14.9619C15.0083 14.9155 15.0448 14.8603 15.0694 14.7995C15.0939 14.7386 15.106 14.6735 15.1049 14.6079C15.1037 14.5424 15.0893 14.4777 15.0626 14.4178C15.036 14.3579 14.9975 14.304 14.9495 14.2593L14.4891 13.7989ZM4.62791 10C4.62791 10.1295 4.57645 10.2537 4.48487 10.3453C4.39328 10.4369 4.26906 10.4884 4.13953 10.4884H3.48837C3.35885 10.4884 3.23463 10.4369 3.14304 10.3453C3.05145 10.2537 3 10.1295 3 10C3 9.87048 3.05145 9.74626 3.14304 9.65467C3.23463 9.56308 3.35885 9.51163 3.48837 9.51163H4.13953C4.26906 9.51163 4.39328 9.56308 4.48487 9.65467C4.57645 9.74626 4.62791 9.87048 4.62791 10ZM6.20112 14.4891C6.28738 14.3965 6.33435 14.2741 6.33211 14.1476C6.32988 14.021 6.27863 13.9003 6.18915 13.8109C6.09967 13.7214 5.97896 13.6701 5.85243 13.6679C5.72591 13.6657 5.60346 13.7126 5.51088 13.7989L5.05051 14.2593C4.96425 14.3518 4.91728 14.4743 4.91951 14.6008C4.92175 14.7273 4.973 14.848 5.06248 14.9375C5.15196 15.027 5.27267 15.0783 5.39919 15.0805C5.52572 15.0827 5.64817 15.0358 5.74074 14.9495L6.20112 14.4891Z" fill="#A7CAFF"/>
</svg>
